<?xml version="1.0" encoding="UTF-8"?><!DOCTYPE svg PUBLIC "-//W3C//DTD SVG 1.1//EN" "http://www.w3.org/Graphics/SVG/1.1/DTD/svg11.dtd"><svg xmlns="http://www.w3.org/2000/svg" xmlns:xlink="http://www.w3.org/1999/xlink"><defs/>
<symbol id="ed-bold" viewBox="0 0 48 48"><path fill="currentColor" d="M10.156 3.722h11.327q7.496 0 11.272 2.243 3.776 2.244 3.776 7.633 0 2.326-.903 4.186-.876 1.834-2.572 3.037-1.696 1.204-4.186 1.67v.273q2.627.41 4.651 1.505 2.025 1.094 3.174 3.064t1.149 5.007q0 3.693-1.724 6.238-1.696 2.544-4.815 3.858-3.119 1.286-7.387 1.286H10.156zm4.651 17.154h7.66q5.227 0 7.224-1.724 2.024-1.723 2.024-5.034 0-3.42-2.407-4.925-2.38-1.504-7.606-1.504h-6.895zm0 3.913v14.965h8.317q5.336 0 7.552-2.079 2.216-2.107 2.216-5.663 0-2.271-1.012-3.886-.985-1.614-3.229-2.462-2.216-.875-5.937-.875z"/></symbol>
<symbol id="ed-italic" viewBox="0 0 48 48"><path fill="currentColor" d="M27.304 44h-15.85l.887-3.895h5.239l7.468-32.21h-5.239L20.696 4h15.85l-.887 3.895H30.42l-7.468 32.21h5.239z"/></symbol>
<symbol id="ed-strike" viewBox="0 0 48 48"><path fill="currentColor" d="M24.691 4c-2.43 0-4.586.399-6.466 1.197-1.863.78-3.326 1.916-4.391 3.407-1.047 1.472-1.57 3.248-1.57 5.324 0 1.508.213 2.846.638 4.017a9.029 9.029 0 001.944 3.088c.321.335.672.657 1.052.967h-2.976v4H24.14c1.525.595 2.781 1.166 3.771 1.713 1.366.727 2.342 1.542 2.928 2.447.585.887.879 1.998.879 3.328 0 1.384-.355 2.573-1.065 3.567-.692.976-1.712 1.73-3.06 2.261-1.349.515-3 .772-4.951.772-2.094 0-4.098-.23-6.014-.692-1.916-.479-3.54-.994-4.871-1.544v4.337c.834.39 1.8.72 2.9.987 1.1.266 2.308.47 3.621.611 1.313.142 2.705.213 4.178.213 2.786 0 5.208-.426 7.266-1.277 2.058-.852 3.653-2.085 4.789-3.7 1.153-1.632 1.73-3.601 1.73-5.908 0-2.058-.416-3.753-1.25-5.084A9.162 9.162 0 0033.27 26h1.808v-4h-9.463l-.097-.035c-2.094-.763-3.78-1.492-5.057-2.184-1.26-.71-2.182-1.517-2.768-2.422-.567-.904-.851-2.04-.851-3.406 0-1.224.3-2.279.904-3.166.603-.887 1.472-1.572 2.608-2.05 1.153-.497 2.564-.745 4.232-.745 1.668 0 3.282.196 4.844.586 1.579.39 3.069.878 4.47 1.463l1.41-3.885c-1.472-.656-3.094-1.18-4.869-1.57-1.756-.39-3.674-.586-5.75-.586z"/></symbol>
<symbol id="ed-ulist" viewBox="0 0 48 48"><path fill="currentColor" d="M 6 10 L 6 16 L 12 16 L 12 10 L 6 10 z M 16 10 L 16 16 L 42 16 L 42 10 L 16 10 z M 6 22 L 6 28 L 12 28 L 12 22 L 6 22 z M 16 22 L 16 28 L 42 28 L 42 22 L 16 22 z M 6 34 L 6 40 L 12 40 L 12 34 L 6 34 z M 16 34 L 16 40 L 42 40 L 42 34 L 16 34 z "/></symbol>
</svg>