<svg width="83.148" height="83.148" viewBox="0 0 22 22" xmlns="http://www.w3.org/2000/svg">
  <g fill="#f7a81b">
    <path d="M0 0c.54-.182.754-.781.921-1.37 2.818-9.479 2.818-17.587 0-27.141-.229-.821-.56-1.273-.996-1.451-.628-.192-1.319.259-1.897.686L-20.43-16.749c-.709.474-1.127 1.119-1.127 1.808 0 .679.409 1.324 1.127 1.817L-1.972-.614C-1.14-.015-.487.174 0 0m-6.765-41.786c-6.839-7.199-13.839-11.252-23.478-13.562-.817-.206-1.383-.141-1.733.149-.505.424-.438 1.268-.388 1.999l1.598 22.245c.102.865.443 1.519 1.051 1.882.591.319 1.351.292 2.097-.067l20.075-9.719c.937-.462 1.438-.918 1.536-1.417.097-.559-.311-1.051-.758-1.51m-31.226 14.035c-7.19 0-13.032 5.843-13.032 13.028 0 4.386 2.186 8.457 5.862 10.882 1.207.809 2.84.462 3.64-.741a2.631 2.631 0 00-.742-3.649 7.745 7.745 0 01-3.495-6.492c0-4.278 3.488-7.769 7.767-7.769 4.288 0 7.774 3.491 7.774 7.769a7.743 7.743 0 01-3.501 6.499 2.63 2.63 0 00-.736 3.646 2.634 2.634 0 003.639.747 13.042 13.042 0 005.862-10.892c0-7.185-5.849-13.028-13.038-13.028m-5.72-27.771c-.443-.359-1.057-.251-1.666-.096-9.582 2.287-16.628 6.343-23.479 13.571-.5.518-.738.974-.738 1.383 0 .073 0 .118.014.199.094.633.868 1.004 1.515 1.317l20.069 9.739c.783.365 1.54.385 2.131.035.58-.343.941-.995 1.008-1.842l1.625-22.278c.063-1.058-.092-1.705-.479-2.028m-30.265 26.104c-.869-.596-1.513-.81-2.005-.633-.548.189-.73.79-.903 1.381-2.838 9.468-2.838 17.588-.034 27.137.243.819.588 1.27 1.022 1.429.643.23 1.316-.241 1.92-.655l18.439-12.544c.696-.461 1.102-1.106 1.102-1.802 0-.669-.406-1.315-1.075-1.802zm4.764 41.207h.014c6.863 7.21 13.891 11.277 23.478 13.576.593.134 1.225.247 1.647-.13.408-.318.549-.97.474-2.039L-45.222.966c-.05-.855-.405-1.528-1.007-1.858-.584-.351-1.346-.333-2.109.044l-20.058 9.713c-.657.325-1.42.669-1.553 1.332-.065.455.159.989.737 1.592m37.259 13.627c.46.374 1.068.255 1.67.13 9.584-2.32 16.622-6.37 23.492-13.588.486-.514.75-.996.75-1.421 0-.04-.014-.107-.014-.169-.145-.66-.88-1.008-1.538-1.323L-27.661-.673c-.793-.375-1.531-.411-2.11-.052-.59.34-.959.999-1.026 1.862l-1.617 22.233c-.067 1.062.078 1.717.461 2.046m-6.002 7.669c-26.294 0-47.693-21.404-47.693-47.704 0-26.313 21.399-47.712 47.693-47.712 26.302 0 47.708 21.399 47.708 47.712 0 26.3-21.406 47.704-47.708 47.704" transform="matrix(.15201 0 0 -.152 16.777 8.713)" />
    <path d="M0 0c-29.889 0-54.219 24.328-54.219 54.234 0 29.901 24.33 54.226 54.219 54.226 29.902 0 54.223-24.325 54.223-54.226C54.223 24.328 29.902 0 0 0m72.198 56.051l-.013.203-.156.089c-3.068 1.862-7.094 2.91-11.029 2.994-.078.522-.573 4.209-.633 4.734 3.763 1.066 7.369 3.11 9.896 5.726l.133.122-.04.201c-.186 1.401-.718 3.356-1.203 4.541l-.081.177-.188.048c-3.463.989-7.608.963-11.413 0-.183.489-1.589 3.887-1.79 4.364 3.35 2.044 6.292 4.941 8.057 8.081l.097.151-.071.196c-.507 1.207-1.529 2.957-2.342 4.064l-.111.153h-.208c-3.563.077-7.541-1.015-11.048-2.903-.307.429-2.591 3.401-2.903 3.815 2.734 2.818 4.821 6.39 5.716 9.883l.053.197-.134.147c-.814 1.073-2.232 2.513-3.299 3.354l-.146.111-.2-.03c-3.502-.887-7.056-2.983-9.883-5.7-.433.33-3.394 2.65-3.823 2.999 1.887 3.33 2.993 7.184 2.993 10.737 0 .1-.018.48-.018.48l-.151.116c-1.093.858-2.824 1.85-4.081 2.361l-.172.062-.159-.085c-3.144-1.747-6.026-4.67-8.048-8.021a398.9 398.9 0 00-4.586 1.917c.474 1.889.77 3.832.77 5.775 0 1.954-.236 3.88-.77 5.622l-.044.181-.193.075c-1.19.511-3.093 1.033-4.5 1.235l-.209.034-.126-.136c-2.599-2.521-4.641-6.112-5.72-9.88-.536.09-4.264.552-4.831.611-.05 3.905-1.102 7.903-2.959 11.011l-.092.178-.197.008c-1.344.17-3.383.17-4.697 0l-.21-.008-.092-.178c-1.845-3.075-2.886-7.072-2.951-10.999-.544-.071-4.33-.533-4.877-.623-1.083 3.787-3.129 7.393-5.717 9.901l-.145.146-.211-.031c-1.394-.208-3.323-.725-4.513-1.21l-.179-.078-.071-.181c-.49-1.77-.751-3.72-.751-5.693 0-1.906.304-3.865.751-5.733-.475-.204-4.111-1.769-4.599-1.966-2.039 3.354-4.926 6.296-8.062 8.066l-.169.1-.199-.067c-1.205-.529-2.949-1.536-4.052-2.365l-.173-.104v-.521c0-3.516 1.091-7.384 2.962-10.737-.409-.338-3.144-2.477-3.554-2.81-2.817 2.724-6.382 4.819-9.897 5.73l-.179.036-.136-.128c-1.079-.808-2.529-2.23-3.357-3.306l-.122-.156.044-.188c.88-3.49 2.975-7.063 5.693-9.905-.297-.418-2.681-3.52-3.011-3.949-3.408 1.906-7.379 3.031-11.015 2.98l-.184-.009-.117-.162c-.798-1.058-1.803-2.769-2.355-4.071l-.078-.17.096-.178c1.743-3.128 4.693-6.047 8.06-8.092-.182-.48-1.563-3.845-1.775-4.334-3.87.959-7.995.971-11.438-.033l-.185-.048-.067-.166c-.508-1.206-1.035-3.109-1.235-4.542l-.024-.196.138-.152c2.513-2.583 6.121-4.626 9.89-5.673-.079-.534-.565-4.256-.633-4.767-3.918-.075-7.95-1.111-11.029-2.958l-.17-.097-.018-.199a21.56 21.56 0 010-4.704l.018-.193.17-.089c3.079-1.843 7.077-2.897 11.019-2.956.078-.539.603-4.362.67-4.887-3.779-1.109-7.359-3.177-9.872-5.758l-.135-.16.016-.174c.221-1.413.738-3.361 1.226-4.533l.077-.175.179-.059c3.488-.996 7.613-.954 11.443 0 .196-.484 1.678-3.871 1.881-4.358-3.352-2.009-6.288-4.912-8.064-8.053l-.083-.175.067-.18c.513-1.231 1.54-2.975 2.359-4.064l.121-.155.177-.007c3.601-.051 7.578 1.015 11.03 2.921.323-.405 2.658-3.445 2.962-3.86-2.71-2.773-4.815-6.33-5.712-9.874l-.048-.18.115-.156c.83-1.06 2.261-2.479 3.316-3.337l.154-.133.187.061c3.495.869 7.043 2.951 9.896 5.683.434-.334 3.454-2.658 3.899-2.988-1.86-3.411-2.943-7.302-2.943-10.844v-.398l.177-.132c1.051-.799 2.766-1.777 4.046-2.353l.177-.063.185.09c3.148 1.756 6.055 4.704 8.095 8.098.473-.193 3.789-1.539 4.276-1.733-.474-1.87-.747-3.797-.747-5.697 0-1.992.26-3.94.767-5.691l.045-.187.193-.07c1.193-.51 3.113-1.032 4.52-1.26l.21-.028.137.156c2.605 2.534 4.641 6.14 5.66 9.871.549-.088 4.362-.628 4.895-.685.077-3.939 1.136-7.945 2.981-11.001l.082-.168.21-.024c1.355-.173 3.369-.173 4.696 0l.193.024.097.168c1.832 3.056 2.883 7.068 2.983 11.023.533.075 4.105.575 4.638.663 1.055-3.795 3.105-7.368 5.711-9.899l.143-.128.173.015c1.424.225 3.354.725 4.554 1.214l.171.085.06.175c.505 1.765.735 3.701.735 5.688 0 1.925-.27 3.886-.735 5.774.49.185 3.956 1.685 4.439 1.902 2.041-3.365 4.942-6.312 8.07-8.079l.156-.078.185.07c1.244.512 3.003 1.525 4.083 2.37l.155.091s.013.416.013.531c0 3.467-1.098 7.338-2.922 10.73.409.324 3.271 2.549 3.679 2.877 2.857-2.716 6.42-4.803 9.915-5.707l.186-.051.143.132c1.066.837 2.516 2.272 3.347 3.31l.128.17-.065.171c-.868 3.486-2.947 7.054-5.673 9.903.317.42 2.626 3.453 2.938 3.883 3.459-1.905 7.435-2.996 11.015-2.919h.196l.117.144c.856 1.092 1.843 2.8 2.357 4.092l.08.163-.095.173c-1.708 3.074-4.633 6.001-7.984 8.11.194.479 1.564 3.822 1.765 4.302 3.8-.977 7.926-1.01 11.395 0l.169.059.078.172c.509 1.223 1.026 3.119 1.243 4.525l.02.197-.146.149c-2.514 2.607-6.098 4.628-9.837 5.699.081.522.589 4.107.642 4.635 3.96.069 7.986 1.124 11.054 2.975l.156.099.013.207c.093.652.127 1.507.127 2.347 0 .844-.034 1.673-.127 2.332" transform="matrix(.15201 0 0 -.15199 11.005 19.178)" />
  </g>
</svg>